#N canvas 955 318 992 558 12;
#X msg 92 37 open sound.wav;
#X obj 74 118 readsf~;
#X obj 74 171 dac~;
#X msg 44 37 1;
#X msg 13 65 0;
#X obj 91 319 readsf~;
#X obj 91 372 dac~;
#X msg 61 238 1;
#X msg 23 271 0;
#X obj 139 229 openpanel;
#X msg 145 274 open \$1;
#X obj 140 159 bng 15 250 50 0 empty empty empty 17 7 0 10 -262144
-1 -1;
#X msg 484 50 read -resize sound.wav soundData;
#X obj 484 84 soundfiler;
#X obj 387 145 expr 44100/$f1;
#X obj 369 252 phasor~;
#X obj 581 278 *~;
#X obj 574 366 dac~;
#X msg 343 118 0;
#N canvas 0 50 450 250 (subpatch) 0;
#X array soundData 1.16787e+007 float 2;
#X coords 0 1 1.16787e+007 -1 200 140 1;
#X restore 677 139 graph;
#X obj 426 179 hsl 128 15 0 127 0 0 empty empty empty -2 -8 0 10 -262144
-1 -1 0 1;
#X floatatom 414 214 5 0 0 0 - - -;
#X floatatom 487 116 10 0 0 0 - - -;
#X obj 582 312 tabread4~ soundData;
#X connect 0 0 1 0;
#X connect 1 0 2 0;
#X connect 1 0 2 1;
#X connect 3 0 1 0;
#X connect 4 0 1 0;
#X connect 5 0 6 0;
#X connect 5 0 6 1;
#X connect 7 0 5 0;
#X connect 8 0 5 0;
#X connect 9 0 10 0;
#X connect 10 0 5 0;
#X connect 11 0 9 0;
#X connect 12 0 13 0;
#X connect 13 0 22 0;
#X connect 14 0 15 0;
#X connect 15 0 16 0;
#X connect 16 0 23 0;
#X connect 18 0 15 0;
#X connect 20 0 21 0;
#X connect 21 0 15 0;
#X connect 22 0 14 0;
#X connect 22 0 16 1;
#X connect 23 0 17 0;
#X connect 23 0 17 1;
